# xmcd CD database file
#
# Track frame offsets:
#	150
#	15011
#	30904
#	43952
#	60226
#	81089
#	103571
#	119942
#	134866
#	153861
#	168617
#	180983
#	197657
#	219518
#	234089
#	250047
#
# Disc length: 3525 seconds
#
# Revision: 0
# Processed by: cddbd v1.4PL0 Copyright (c) Steve Scherf et al.
# Submitted via: CDex 1.50
#
DISCID=c80dc310
DTITLE=Los Torpedos - Radio Crackers
DYEAR=1999
DGENRE=Jazz
TTITLE0=Crazy 'Bout You
TTITLE1=Alabama Song
TTITLE2=In The Night
TTITLE3=San Francisco Bay Blues
TTITLE4=Let's Get Drung Again
TTITLE5=Sylvia's Mother
TTITLE6=Mysterious Mose
TTITLE7=Whinin' Boy Blues
TTITLE8=Tennessee Waltz
TTITLE9=In A Gadda Da Vida
TTITLE10=Tweedle Dee
TTITLE11=Lovesick Blues
TTITLE12=Sunny Afternoon
TTITLE13=Your Feet's Too Big
TTITLE14=High Society March
TTITLE15=Ice Cream Man
EXTD=YEAR: 1999
EXTT0=
EXTT1=
EXTT2=
EXTT3=
EXTT4=
EXTT5=
EXTT6=
EXTT7=
EXTT8=
EXTT9=
EXTT10=
EXTT11=
EXTT12=
EXTT13=
EXTT14=
EXTT15=
PLAYORDER=
